<svg width="39" height="39" viewBox="0 0 39 39" fill="none" xmlns="http://www.w3.org/2000/svg">
<path d="M19.5 0C16.9392 0 14.4035 0.504383 12.0377 1.48435C9.67182 2.46432 7.52216 3.90068 5.71142 5.71142C2.05446 9.36838 0 14.3283 0 19.5C0 24.6717 2.05446 29.6316 5.71142 33.2886C7.52216 35.0993 9.67182 36.5357 12.0377 37.5157C14.4035 38.4956 16.9392 39 19.5 39C24.6717 39 29.6316 36.9455 33.2886 33.2886C36.9455 29.6316 39 24.6717 39 19.5C39 16.9392 38.4956 14.4035 37.5157 12.0377C36.5357 9.67182 35.0993 7.52216 33.2886 5.71142C31.4778 3.90068 29.3282 2.46432 26.9623 1.48435C24.5965 0.504383 22.0608 0 19.5 0ZM27.69 27.69L17.55 21.45V9.75H20.475V19.89L29.25 25.155L27.69 27.69Z" fill="#4780C5"/>
</svg>
