<svg width="39" height="39" viewBox="0 0 39 39" fill="none" xmlns="http://www.w3.org/2000/svg">
<circle cx="19.5" cy="19.5" r="19.5" fill="#FFCD59"/>
<path d="M12.0002 11.0519C12.0002 10.7519 12.1001 10.5019 12.3001 10.3019C12.5 10.1018 12.75 10.0018 13.05 10.0017L17.1 10.0008C17.3333 10.0008 17.5377 10.0758 17.713 10.2257C17.8877 10.3757 18.0001 10.5673 18.0502 10.8006L18.7509 14.2505C18.7843 14.4838 18.7637 14.7215 18.6891 14.9635C18.6138 15.2049 18.5012 15.4005 18.3512 15.5506L16.0017 17.9011C16.7686 19.1676 17.6772 20.3257 18.7274 21.3755C19.7777 22.4253 20.9029 23.3 22.103 23.9998L24.5525 21.5992C24.7025 21.4492 24.8734 21.3532 25.0654 21.3111C25.2568 21.2698 25.4691 21.2657 25.7024 21.299L29.2026 21.9482C29.4359 21.9815 29.6276 22.0898 29.7776 22.2731C29.9277 22.4564 30.0027 22.6647 30.0028 22.8981L30.0036 26.9481C30.0037 27.2481 29.9038 27.4981 29.7038 27.6981C29.5038 27.8982 29.2539 27.9982 28.9539 27.9983C26.8039 27.9988 24.7081 27.5199 22.6666 26.5617C20.6243 25.6041 18.8157 24.3378 17.2407 22.7628C15.6651 21.1885 14.398 19.3808 13.4396 17.3396C12.4805 15.2978 12.0007 13.2019 12.0002 11.0519Z" fill="black"/>
</svg>
