<svg width="26" height="32" viewBox="0 0 26 32" fill="none" xmlns="http://www.w3.org/2000/svg">
<path d="M13 16C13.8938 16 14.6591 15.6864 15.2961 15.0592C15.932 14.4331 16.25 13.68 16.25 12.8C16.25 11.92 15.932 11.1664 15.2961 10.5392C14.6591 9.91307 13.8938 9.6 13 9.6C12.1062 9.6 11.3414 9.91307 10.7055 10.5392C10.0685 11.1664 9.75 11.92 9.75 12.8C9.75 13.68 10.0685 14.4331 10.7055 15.0592C11.3414 15.6864 12.1062 16 13 16ZM13 32C8.63958 28.3467 5.38308 24.9531 3.2305 21.8192C1.07683 18.6864 0 15.7867 0 13.12C0 9.12 1.30704 5.93333 3.92113 3.56C6.53413 1.18667 9.56042 0 13 0C16.4396 0 19.4659 1.18667 22.0789 3.56C24.693 5.93333 26 9.12 26 13.12C26 15.7867 24.9237 18.6864 22.7711 21.8192C20.6175 24.9531 17.3604 28.3467 13 32Z" fill="#4780C5"/>
</svg>
