<svg width="35" height="31" viewBox="0 0 35 31" fill="none" xmlns="http://www.w3.org/2000/svg">
<path d="M7.03889 13.4161C9.83889 18.29 14.35 22.2683 19.8528 24.7656L24.1306 20.9767C24.6556 20.5117 25.4333 20.3567 26.1139 20.5633C28.2917 21.2006 30.6444 21.545 33.0556 21.545C34.125 21.545 35 22.32 35 23.2672V29.2778C35 30.225 34.125 31 33.0556 31C14.7972 31 0 17.8939 0 1.72222C0 0.775 0.875 0 1.94444 0H8.75C9.81944 0 10.6944 0.775 10.6944 1.72222C10.6944 3.875 11.0833 5.94167 11.8028 7.87056C12.0167 8.47333 11.8611 9.145 11.3167 9.62722L7.03889 13.4161Z" fill="#4780C5"/>
</svg>
